<?xml version="1.0" encoding="UTF-8" standalone="no"?>
<!-- Generated by IcoMoon.io -->

<svg
   xmlns:dc="http://purl.org/dc/elements/1.1/"
   xmlns:cc="http://creativecommons.org/ns#"
   xmlns:rdf="http://www.w3.org/1999/02/22-rdf-syntax-ns#"
   xmlns:svg="http://www.w3.org/2000/svg"
   xmlns="http://www.w3.org/2000/svg"
   xmlns:sodipodi="http://sodipodi.sourceforge.net/DTD/sodipodi-0.dtd"
   xmlns:inkscape="http://www.inkscape.org/namespaces/inkscape"
   version="1.1"
   width="34"
   height="32"
   viewBox="0 0 34 32"
   id="svg2"
   inkscape:version="0.91 r13725"
   sodipodi:docname="curve_view.svg"
   inkscape:export-filename="/home/martinc/dev/quantiphyse/quantiphyse/icons/curve_view.png"
   inkscape:export-xdpi="90"
   inkscape:export-ydpi="90">
  <metadata
     id="metadata10">
    <rdf:RDF>
      <cc:Work
         rdf:about="">
        <dc:format>image/svg+xml</dc:format>
        <dc:type
           rdf:resource="http://purl.org/dc/dcmitype/StillImage" />
        <dc:title />
      </cc:Work>
    </rdf:RDF>
  </metadata>
  <defs
     id="defs8" />
  <sodipodi:namedview
     pagecolor="#ffffff"
     bordercolor="#666666"
     borderopacity="1"
     objecttolerance="10"
     gridtolerance="10"
     guidetolerance="10"
     inkscape:pageopacity="0"
     inkscape:pageshadow="2"
     inkscape:window-width="1855"
     inkscape:window-height="1176"
     id="namedview6"
     showgrid="false"
     inkscape:zoom="10.429825"
     inkscape:cx="-33.391922"
     inkscape:cy="7.4162591"
     inkscape:window-x="65"
     inkscape:window-y="24"
     inkscape:window-maximized="1"
     inkscape:current-layer="svg2" />
  <path
     style="fill:none;fill-rule:evenodd;stroke:#ff0000;stroke-width:4;stroke-linecap:butt;stroke-linejoin:miter;stroke-opacity:1;stroke-miterlimit:4;stroke-dasharray:none"
     d="m 2.3010933,27.110177 c 0,0 6.6156431,1.438183 9.6837677,-2.205215 3.068124,-3.643397 1.821699,-6.136248 3.931034,-11.12195 2.109336,-4.9857024 4.218671,-7.1909167 9.683768,-7.5744323 5.465096,-0.3835155 6.711522,-0.3835155 6.711522,-0.3835155 l 0,0"
     id="path4155"
     inkscape:connector-curvature="0" />
  <path
     style="fill:#e3cd00;fill-opacity:1;stroke:none;stroke-width:2.5;stroke-miterlimit:4;stroke-dasharray:none;stroke-dashoffset:0;stroke-opacity:1"
     id="path4157"
     sodipodi:type="arc"
     sodipodi:cx="18.12826"
     sodipodi:cy="17.035744"
     sodipodi:rx="2.5"
     sodipodi:ry="2.5"
     sodipodi:start="0"
     sodipodi:end="6.2765531"
     sodipodi:open="true"
     d="m 20.62826,17.035744 a 2.5,2.5 0 0 1 -2.495855,2.499996 2.5,2.5 0 0 1 -2.504132,-2.491706 2.5,2.5 0 0 1 2.487551,-2.508259 2.5,2.5 0 0 1 2.512381,2.483388" />
  <path
     style="fill:#e3cd00;fill-opacity:1;stroke:none;stroke-width:2.5;stroke-miterlimit:4;stroke-dasharray:none;stroke-dashoffset:0;stroke-opacity:1"
     id="path4157-5"
     sodipodi:type="arc"
     sodipodi:cx="9.0538273"
     sodipodi:cy="24.288479"
     sodipodi:rx="2.5"
     sodipodi:ry="2.5"
     sodipodi:start="0"
     sodipodi:end="6.2765531"
     sodipodi:open="true"
     d="M 11.553827,24.288479 A 2.5,2.5 0 0 1 9.0579724,26.788475 2.5,2.5 0 0 1 6.553841,24.296769 2.5,2.5 0 0 1 9.0413919,21.78851 2.5,2.5 0 0 1 11.553772,24.271898" />
  <path
     style="fill:#e3cd00;fill-opacity:1;stroke:none;stroke-width:2.5;stroke-miterlimit:4;stroke-dasharray:none;stroke-dashoffset:0;stroke-opacity:1"
     id="path4157-3"
     sodipodi:type="arc"
     sodipodi:cx="22.627419"
     sodipodi:cy="4.8662753"
     sodipodi:rx="2.5"
     sodipodi:ry="2.5"
     sodipodi:start="0"
     sodipodi:end="6.2765531"
     sodipodi:open="true"
     d="M 25.127419,4.8662753 A 2.5,2.5 0 0 1 22.631564,7.3662719 2.5,2.5 0 0 1 20.127432,4.8745656 2.5,2.5 0 0 1 22.614983,2.3663062 2.5,2.5 0 0 1 25.127364,4.8496949" />
  <rect
     style="fill:none;stroke:#b3b3b3;stroke-width:3.09448791;stroke-miterlimit:4;stroke-dasharray:none;stroke-dashoffset:0;stroke-opacity:1"
     id="rect2987"
     width="28.905514"
     height="28.905512"
     x="2.2851985"
     y="1.6489354"
     ry="2.2950706"
     inkscape:export-xdpi="90"
     inkscape:export-ydpi="90" />
</svg>
