<?xml version="1.0" encoding="UTF-8" standalone="no"?>
<svg
   xmlns:dc="http://purl.org/dc/elements/1.1/"
   xmlns:cc="http://creativecommons.org/ns#"
   xmlns:rdf="http://www.w3.org/1999/02/22-rdf-syntax-ns#"
   xmlns:svg="http://www.w3.org/2000/svg"
   xmlns="http://www.w3.org/2000/svg"
   xmlns:sodipodi="http://sodipodi.sourceforge.net/DTD/sodipodi-0.dtd"
   xmlns:inkscape="http://www.inkscape.org/namespaces/inkscape"
   width="8"
   height="8"
   viewBox="0 0 8 8"
   id="svg2"
   version="1.1"
   inkscape:version="0.91 r13725"
   sodipodi:docname="question-mark.svg"
   inkscape:export-filename="/home/martinc/dev/quantiphyse/quantiphyse/icons/question-mark.png"
   inkscape:export-xdpi="355.55554"
   inkscape:export-ydpi="355.55554">
  <metadata
     id="metadata10">
    <rdf:RDF>
      <cc:Work
         rdf:about="">
        <dc:format>image/svg+xml</dc:format>
        <dc:type
           rdf:resource="http://purl.org/dc/dcmitype/StillImage" />
      </cc:Work>
    </rdf:RDF>
  </metadata>
  <defs
     id="defs8" />
  <sodipodi:namedview
     pagecolor="#ffffff"
     bordercolor="#666666"
     borderopacity="1"
     objecttolerance="10"
     gridtolerance="10"
     guidetolerance="10"
     inkscape:pageopacity="0"
     inkscape:pageshadow="2"
     inkscape:window-width="1855"
     inkscape:window-height="1176"
     id="namedview6"
     showgrid="false"
     inkscape:zoom="29.5"
     inkscape:cx="-2.2711864"
     inkscape:cy="4"
     inkscape:window-x="65"
     inkscape:window-y="24"
     inkscape:window-maximized="1"
     inkscape:current-layer="svg2" />
  <path
     d="M2.47 0c-.85 0-1.48.26-1.88.66-.4.4-.54.9-.59 1.28l1 .13c.04-.25.12-.5.31-.69.19-.19.49-.38 1.16-.38.66 0 1.02.16 1.22.34.2.18.28.4.28.66 0 .83-.34 1.06-.84 1.5-.5.44-1.16 1.08-1.16 2.25v.25h1v-.25c0-.83.31-1.06.81-1.5.5-.44 1.19-1.08 1.19-2.25 0-.48-.17-1.02-.59-1.41-.43-.39-1.07-.59-1.91-.59zm-.5 7v1h1v-1h-1z"
     transform="translate(2)"
     id="path4"
     style="stroke:#000000;stroke-width:0.10000000000000001;fill:#ffffff" />
</svg>
