<?xml version="1.0" encoding="UTF-8" standalone="no"?>
<!-- Generated by IcoMoon.io -->

<svg
   xmlns:dc="http://purl.org/dc/elements/1.1/"
   xmlns:cc="http://creativecommons.org/ns#"
   xmlns:rdf="http://www.w3.org/1999/02/22-rdf-syntax-ns#"
   xmlns:svg="http://www.w3.org/2000/svg"
   xmlns="http://www.w3.org/2000/svg"
   xmlns:sodipodi="http://sodipodi.sourceforge.net/DTD/sodipodi-0.dtd"
   xmlns:inkscape="http://www.inkscape.org/namespaces/inkscape"
   version="1.1"
   width="34"
   height="32"
   viewBox="0 0 34 32"
   id="svg2"
   inkscape:version="0.91 r13725"
   sodipodi:docname="t10.svg"
   inkscape:export-filename="/home/martinc/dev/quantiphyse/quantiphyse/icons/t10.png"
   inkscape:export-xdpi="89.739998"
   inkscape:export-ydpi="89.739998">
  <metadata
     id="metadata10">
    <rdf:RDF>
      <cc:Work
         rdf:about="">
        <dc:format>image/svg+xml</dc:format>
        <dc:type
           rdf:resource="http://purl.org/dc/dcmitype/StillImage" />
        <dc:title></dc:title>
      </cc:Work>
    </rdf:RDF>
  </metadata>
  <defs
     id="defs8" />
  <sodipodi:namedview
     pagecolor="#ffffff"
     bordercolor="#666666"
     borderopacity="1"
     objecttolerance="10"
     gridtolerance="10"
     guidetolerance="10"
     inkscape:pageopacity="0"
     inkscape:pageshadow="2"
     inkscape:window-width="1278"
     inkscape:window-height="875"
     id="namedview6"
     showgrid="false"
     inkscape:zoom="10.429825"
     inkscape:cx="0.41417547"
     inkscape:cy="20.158344"
     inkscape:window-x="75"
     inkscape:window-y="34"
     inkscape:window-maximized="0"
     inkscape:current-layer="svg2" />
  <rect
     style="fill:none;stroke:#999999;stroke-width:3.09448791;stroke-miterlimit:4;stroke-dasharray:none;stroke-dashoffset:0;stroke-opacity:1"
     id="rect2987"
     width="28.905512"
     height="28.905512"
     x="2.3810775"
     y="1.5530556"
     ry="2.2950706" />
  <path
     style="fill:#f1e000;fill-rule:evenodd;stroke:#ffffff;stroke-width:1px;stroke-linecap:butt;stroke-linejoin:miter;stroke-opacity:1;fill-opacity:1"
     d="m 6.711522,10.52313 c 0,0 0.4793944,-5.4650969 4.985702,-5.2733391 4.506308,0.1917577 10.738435,0.8629099 15.052985,2.5887299 4.31455,1.7258199 -4.122792,9.9714042 -4.122792,9.9714042 0,0 -3.547519,3.164003 -3.068124,7.478553 0.479394,4.31455 -11.8889821,3.931034 -13.0395288,2.205214 -1.1505466,-1.72582 2.4928511,-9.012615 1.72582,-11.888981 C 7.4785531,12.728344 6.711522,10.52313 6.711522,10.52313 Z"
     id="path4160"
     inkscape:connector-curvature="0" />
  <path
     style="fill:#f15800;fill-opacity:1;fill-rule:evenodd;stroke:none;stroke-width:1px;stroke-linecap:butt;stroke-linejoin:miter;stroke-opacity:1"
     d="m 13.231287,11.290161 c 0,0 -0.191759,2.780487 -0.575274,4.985702 -0.383516,2.205214 -2.8763666,6.328006 -0.671152,7.095037 2.205214,0.767031 5.273338,-0.767031 5.656854,-2.492851 0.383516,-1.72582 3.643398,-6.519764 3.355761,-10.067283 C 20.709839,7.2632475 18.095241,10.61385 15.532379,9.2767041 13.327165,8.1261574 13.231287,11.290161 13.231287,11.290161 Z"
     id="path4170"
     inkscape:connector-curvature="0"
     sodipodi:nodetypes="csssssc" />
</svg>
