<?xml version="1.0" encoding="UTF-8" standalone="no"?>
<!-- Generated by IcoMoon.io -->

<svg
   xmlns:dc="http://purl.org/dc/elements/1.1/"
   xmlns:cc="http://creativecommons.org/ns#"
   xmlns:rdf="http://www.w3.org/1999/02/22-rdf-syntax-ns#"
   xmlns:svg="http://www.w3.org/2000/svg"
   xmlns="http://www.w3.org/2000/svg"
   xmlns:sodipodi="http://sodipodi.sourceforge.net/DTD/sodipodi-0.dtd"
   xmlns:inkscape="http://www.inkscape.org/namespaces/inkscape"
   version="1.1"
   width="34"
   height="32"
   viewBox="0 0 34 32"
   id="svg2"
   inkscape:version="0.91 r13725"
   sodipodi:docname="clustering.svg">
  <metadata
     id="metadata10">
    <rdf:RDF>
      <cc:Work
         rdf:about="">
        <dc:format>image/svg+xml</dc:format>
        <dc:type
           rdf:resource="http://purl.org/dc/dcmitype/StillImage" />
        <dc:title />
      </cc:Work>
    </rdf:RDF>
  </metadata>
  <defs
     id="defs8" />
  <sodipodi:namedview
     pagecolor="#ffffff"
     bordercolor="#666666"
     borderopacity="1"
     objecttolerance="10"
     gridtolerance="10"
     guidetolerance="10"
     inkscape:pageopacity="0"
     inkscape:pageshadow="2"
     inkscape:window-width="1855"
     inkscape:window-height="1176"
     id="namedview6"
     showgrid="false"
     inkscape:zoom="10.429825"
     inkscape:cx="-18.427344"
     inkscape:cy="15.08657"
     inkscape:window-x="65"
     inkscape:window-y="24"
     inkscape:window-maximized="1"
     inkscape:current-layer="svg2" />
  <rect
     style="fill:none;stroke:#999999;stroke-width:3.09448791;stroke-miterlimit:4;stroke-dasharray:none;stroke-dashoffset:0;stroke-opacity:1"
     id="rect2987"
     width="28.905514"
     height="28.905512"
     x="2.3810773"
     y="1.6489354"
     ry="2.2950706"
     inkscape:export-xdpi="90"
     inkscape:export-ydpi="90" />
  <path
     style="fill:none;stroke:#999999;stroke-width:1px;stroke-linecap:butt;stroke-linejoin:miter;stroke-opacity:1"
     d="m 1.9175777,21.165686 13.3271653,-9.108494 14.765348,12.84777 1.534062,1.534062"
     id="path2983"
     inkscape:connector-curvature="0"
     sodipodi:nodetypes="cccc" />
  <path
     style="fill:none;stroke:#999999;stroke-width:1.25352526px;stroke-linecap:butt;stroke-linejoin:miter;stroke-opacity:1"
     d="M 15.485237,12.099053 19.318798,2.8109583"
     id="path2985"
     inkscape:connector-curvature="0" />
  <path
     style="fill:#00ff00;fill-opacity:1;fill-rule:nonzero;stroke:#999999;stroke-width:3;stroke-miterlimit:4;stroke-dasharray:none;stroke-dashoffset:0;stroke-opacity:1"
     d="m 3.4400871,11.755208 c 0,-8.279951 0.0097,-8.7049614 0.202761,-8.8843135 0.184528,-0.1714244 0.88744,-0.188363 7.8166709,-0.188363 4.187651,0 7.613911,0.042619 7.613911,0.094711 0,0.097683 -2.260507,6.9633922 -2.676348,8.1287125 l -0.233627,0.654705 -6.2230899,4.360536 c -3.422701,2.398293 -6.285459,4.398657 -6.361684,4.445249 -0.110391,0.06747 -0.138594,-1.685172 -0.138594,-8.611237 z"
     id="path2987"
     inkscape:connector-curvature="0" />
  <path
     style="fill:#ff0000;fill-opacity:1;fill-rule:nonzero;stroke:#999999;stroke-width:3;stroke-miterlimit:4;stroke-dasharray:none;stroke-dashoffset:0;stroke-opacity:1"
     d="M 23.864832,17.189566 C 20.147128,13.954326 17.029199,11.23147 16.9361,11.138774 16.774387,10.97776 16.824642,10.80134 18.061753,7.1871649 c 0.712209,-2.0806884 1.29534,-3.8373554 1.295848,-3.9037034 7.38e-4,-0.0958 1.12884,-0.115538 5.479657,-0.09588 l 5.478734,0.02475 0.178723,0.239697 c 0.172005,0.230688 0.177799,0.603912 0.15415,9.9297425 l -0.02457,9.690044 -6.759461,-5.882255 z"
     id="path2989"
     inkscape:connector-curvature="0" />
  <path
     style="fill:#000079;fill-rule:evenodd;stroke:#999999;stroke-width:3;stroke-linecap:butt;stroke-linejoin:miter;stroke-opacity:1;fill-opacity:1;stroke-miterlimit:4;stroke-dasharray:none"
     d="M 3.7392765,19.727503 3.9310343,29.986543 30.297728,29.603028 30.201849,23.658537 16.682926,11.577797 Z"
     id="path4153"
     inkscape:connector-curvature="0" />
</svg>
